# File created by Blade
# Date/Time:  Wed Sep 24 19:53:44 2014
# Frame Rate: 120.000 fps
#------------------------------------------------------
:FULLY-SPECIFIED
:DEGREES
1809
root -6.254470 32.879215 -4.117187 8.909172 0.127297 -1.223508
Spine -17.876335 -6.558768 0.114474
Head -3.510702 4.641185 26.620740
LeftShoulder 0.538110 -1.396689 25.173191
LeftArm 124.301239 -49.067656 -156.881578
LeftForeArm -70.100613 -0.000000 99.058527
LeftHand -7.289659 0.000000 -8.524381
LeftHandThumb1 -26.253704 0.000000 33.147579
RightShoulder -14.265363 13.837985 -12.270708
RightArm -11.077238 -18.538021 77.439460
RightForeArm -19.498847 0.000000 17.794734
RightHand -6.162342 -0.000000 11.024837
RightHandThumb1 -24.326973 -0.000000 -32.862282
LeftUpLeg -1.815085 9.522346 4.710946
LeftLeg -2.438240 -0.000000 0.000000
LeftFoot -9.620629 5.291069 -19.049872
LeftToeBase 11.579465 -0.000000 -0.000000
RightUpLeg -4.589649 -7.146451 -2.647980
RightLeg 1.879532 -0.000000 -0.000000
RightFoot -7.423061 -2.978792 -13.446418
RightToeBase -1.259986 -0.000000 0.000000
1810
root -6.258037 32.879848 -4.114446 8.924340 0.297155 -1.203507
Spine -17.899779 -6.688891 0.044115
Head -3.456206 4.610607 26.591715
LeftShoulder 0.520120 -1.539153 25.199761
LeftArm 124.785333 -48.601646 -157.613857
LeftForeArm -70.406114 -0.000000 99.286053
LeftHand -7.103307 -0.000000 -8.635495
LeftHandThumb1 -26.253704 0.000000 33.147579
RightShoulder -14.226057 13.860933 -12.262717
RightArm -11.230719 -18.500821 77.411486
RightForeArm -19.464167 -0.000000 17.697309
RightHand -6.109397 0.000000 11.107945
RightHandThumb1 -24.326973 -0.000000 -32.862282
LeftUpLeg -1.844118 9.503961 4.712237
LeftLeg -2.465851 -0.000000 0.000000
LeftFoot -9.532068 5.154898 -19.048672
LeftToeBase 11.569147 -0.000000 -0.000000
RightUpLeg -4.573417 -7.237628 -2.640058
RightLeg 1.877521 -0.000000 -0.000000
RightFoot -7.425109 -3.073799 -13.435113
RightToeBase -1.221672 -0.000000 0.000000
1811
root -6.263504 32.880658 -4.110427 8.935471 0.456488 -1.193401
Spine -17.917279 -6.809456 -0.010537
Head -3.401036 4.572699 26.554503
LeftShoulder 0.502962 -1.675456 25.223121
LeftArm 125.216589 -48.207473 -158.240613
LeftForeArm -70.644890 -0.000000 99.555362
LeftHand -6.970200 -0.000000 -8.225054
LeftHandThumb1 -26.253704 0.000000 33.147579
RightShoulder -14.233707 13.841332 -12.250209
RightArm -11.308947 -18.525515 77.377777
RightForeArm -19.399064 -0.000000 17.617808
RightHand -6.146712 -0.000000 11.079714
RightHandThumb1 -24.326973 -0.000000 -32.862282
LeftUpLeg -1.864052 9.557778 4.722921
LeftLeg -2.502202 -0.000000 0.000000
LeftFoot -9.414388 4.972423 -19.024799
LeftToeBase 11.513066 -0.000000 -0.000000
RightUpLeg -4.544097 -7.275923 -2.626675
RightLeg 1.858251 -0.000000 -0.000000
RightFoot -7.402700 -3.166850 -13.398400
RightToeBase -1.216550 -0.000000 0.000000
1812
root -6.267548 32.881390 -4.107619 8.972902 0.627259 -1.169167
Spine -17.967232 -6.966372 -0.055207
Head -3.358858 4.561089 26.496019
LeftShoulder 0.456488 -1.785230 25.248406
LeftArm 125.600585 -47.863376 -158.795845
LeftForeArm -71.004084 -0.000000 99.744687
LeftHand -7.031004 -0.000000 -8.181949
LeftHandThumb1 -26.253704 0.000000 33.147579
RightShoulder -14.224871 13.835853 -12.257791
RightArm -11.417111 -18.509544 77.367235
RightForeArm -19.421949 -0.000000 17.573896
RightHand -6.136032 -0.000000 11.132539
RightHandThumb1 -24.326973 -0.000000 -32.862282
LeftUpLeg -1.914902 9.567024 4.716222
LeftLeg -2.536473 -0.000000 0.000000
LeftFoot -9.318574 4.806521 -19.055145
LeftToeBase 11.561384 -0.000000 -0.000000
RightUpLeg -4.541795 -7.312631 -2.625463
RightLeg 1.840177 -0.000000 -0.000000
RightFoot -7.395326 -3.291812 -13.376872
RightToeBase -1.179315 -0.000000 0.000000
1813
root -6.271016 32.881965 -4.101968 8.987250 0.773875 -1.155557
Spine -17.999682 -7.092544 -0.085047
Head -3.304426 4.558702 26.439246
LeftShoulder 0.418997 -1.799838 25.267557
LeftArm 125.937196 -47.552051 -159.247402
LeftForeArm -71.051343 -0.000000 99.862270
LeftHand -7.197328 -0.000000 -8.502011
LeftHandThumb1 -26.253704 0.000000 33.147579
RightShoulder -14.211388 13.813956 -12.263066
RightArm -11.514234 -18.472238 77.350845
RightForeArm -19.429028 0.000000 17.537527
RightHand -6.089108 -0.000000 11.154685
RightHandThumb1 -24.326973 -0.000000 -32.862282
LeftUpLeg -1.921290 9.580137 4.722091
LeftLeg -2.591177 -0.000000 0.000000
LeftFoot -9.221359 4.657808 -19.070485
LeftToeBase 11.584845 -0.000000 -0.000000
RightUpLeg -4.516585 -7.270843 -2.622112
RightLeg 1.834162 -0.000000 -0.000000
RightFoot -7.365639 -3.472924 -13.328005
RightToeBase -1.209042 -0.000000 0.000000
1814
root -6.275011 32.882055 -4.098806 9.011624 0.901591 -1.142549
Spine -18.033654 -7.200476 -0.114481
Head -3.278685 4.592878 26.394080
LeftShoulder 0.362784 -1.810017 25.299250
LeftArm 126.135003 -47.360369 -159.509978
LeftForeArm -71.484679 -0.000000 100.079092
LeftHand -7.210781 -0.000000 -7.575167
LeftHandThumb1 -26.253704 0.000000 33.147579
RightShoulder -14.221141 13.765934 -12.266788
RightArm -11.560299 -18.438542 77.334703
RightForeArm -19.462958 0.000000 17.513702
RightHand -6.136870 0.000000 11.119830
RightHandThumb1 -24.326973 -0.000000 -32.862282
LeftUpLeg -1.939013 9.568107 4.726927
LeftLeg -2.647567 -0.000000 0.000000
LeftFoot -9.136953 4.546179 -19.106803
LeftToeBase 11.612926 -0.000000 -0.000000
RightUpLeg -4.506062 -7.253649 -2.617058
RightLeg 1.818696 -0.000000 -0.000000
RightFoot -7.352131 -3.620673 -13.337961
RightToeBase -1.134391 -0.000000 0.000000
